<?xml version="1.0" encoding="utf-8"?>
<!-- Generator: Adobe Illustrator 19.0.0, SVG Export Plug-In . SVG Version: 6.00 Build 0)  -->
<svg version="1.1" xmlns="http://www.w3.org/2000/svg" xmlns:xlink="http://www.w3.org/1999/xlink" x="0px" y="0px"
	 viewBox="0 0 24 24" style="enable-background:new 0 0 24 24;" xml:space="preserve">
<style type="text/css">
	.st0{display:none;}
	.st1{fill-rule:evenodd;clip-rule:evenodd;fill:#1177EE;}
</style>
<g id="Line" class="st0">
</g>
<g id="icon">
	<path class="st1" d="M18,2H6C4.9,2,4,2.9,4,4v16c0,1.1,0.9,2,2,2h12c1.1,0,2-0.9,2-2V4C20,2.9,19.1,2,18,2z M11,15H7
		c-0.3,0-0.5-0.2-0.5-0.5S6.7,14,7,14h4c0.3,0,0.5,0.2,0.5,0.5S11.3,15,11,15z M17,12H7c-0.3,0-0.5-0.2-0.5-0.5S6.7,11,7,11h10
		c0.3,0,0.5,0.2,0.5,0.5S17.3,12,17,12z M17,9H7C6.7,9,6.5,8.8,6.5,8.5S6.7,8,7,8h10c0.3,0,0.5,0.2,0.5,0.5S17.3,9,17,9z"/>
</g>
</svg>
