<?xml version="1.0" encoding="utf-8"?>
<!-- Generator: Adobe Illustrator 19.0.0, SVG Export Plug-In . SVG Version: 6.00 Build 0)  -->
<svg version="1.1" id="隔离模式" xmlns="http://www.w3.org/2000/svg" xmlns:xlink="http://www.w3.org/1999/xlink" x="0px"
	 y="0px" viewBox="0 0 140 100" style="enable-background:new 0 0 140 100;" xml:space="preserve">
<style type="text/css">
	.st0{fill:#1177EE;}
</style>
<g>
	<path class="st0" d="M38.6,45.8c-14,0-23.1-8.3-21.4-16.8c0,0,1.6-5.2,6.8-5.1c0,0-2.4-3.1,0.1-9.4c0,0-3,5.7-7.6,5.6
		c0,0,2.6,3.8,0.6,7.4c-2,3.6-3.4,19.8,19.2,23.1C58.9,54,74.6,37.8,74.6,37.8H62C62,37.8,52.5,45.8,38.6,45.8z"/>
	<path class="st0" d="M73.8,15.3h9.8C83.6,15.3,78,0,56.9,0c-19,0-29.7,12.2-29.7,12.2S61.4-10.5,73.8,15.3z"/>
	<path class="st0" d="M73.4,21.4c0-4-3.4-4.9-3.4-4.9H52.1l-5.5,17.4h-14l17.8-17.4H27.7l0,2.3l11.4,0l1.4,0l-19,17.8h31.7l5.2-17.8
		h3.3c1,0,4.2,0.2,4.2,3.1c0,2.9-5.3,4.5-5.3,4.5l-3.1,0.1v0.8l3.8,9.3h8.3l-4.4-8.9C70.7,27.7,73.4,25.4,73.4,21.4z"/>
	<path class="st0" d="M114.4,16.5h-13.9l-6.1,20.1h16.9c0,0,12.7-3.4,12.7-12C124,15.9,114.4,16.5,114.4,16.5z M109.6,33.9l-0.3,0.2
		l-0.4,0.1h-6.2l4.3-15.4h4.8c0.8,0,5,1.6,5,6.2C116.7,29.6,109.6,33.9,109.6,33.9z"/>
	<path class="st0" d="M97.2,21.1c0-3.8-2-4.7-7.2-4.7c-5.2,0.1-13.5,0-13.5,0l-5.6,20.1h7.6l2.6-8.5L92,27.8
		C92,27.8,97.2,25,97.2,21.1z M87.1,25.7l-0.1,0l-0.2,0h-5l2-7h3.4c0,0,3.2,0.3,3.2,2.7S87.1,25.7,87.1,25.7z"/>
</g>
<g>
	<path d="M3.8,85.4v1.5h7v2.4h-0.6v4.1l-0.4,0.4l-2.3,1.9l2.1,1.8h1.2v2.4H8.3l-0.5-0.4l-2.4-2.1L3,99.5L2.5,100H0v-2.4h1.2l2.2-1.8
		l-2.2-1.9l-0.4-0.3v-4.1H0v-2.4h0.8v-1.5H3.8z M8,84.7l-0.6-6.3H6.9v6.4h-3v-6.4H3.4l-0.6,6.3L0,84.6l0.5-6.2H0.2V76h3.8v-6.1h3V76
		h3.8v2.4h-0.4l0.5,6.2L8,84.7z M0.5,75.4l-0.4-5h2.7l0.4,5H0.5z M7.1,92.5v-3.2H3.8v3.2l1.6,1.4L7.1,92.5z M7.6,75.4l0.4-5h2.7
		l-0.4,5H7.6z M14.5,70v2.6h5.1V75h-0.6v13.3l-2,5.3l1.6,4.1h1.1v2.3h-3.1l-1.1-2.5l-0.9,2.5h-3.2v-2.3h1.1l1.5-4.1l-2.2-5.3v-12
		h2.8v11.5l0.8,1.9l0.7-1.9V75H13l-1.5-1.2V70H14.5z"/>
	<path d="M30.6,76.9H29v10.3h1.7v2.4H29v9.1l-1.5,1.2h-2.9v-2.4h1.4v-7.9h-1.7v-2.4h1.7V76.9h-1.7v-2.4h1.7v-4.6h3v4.6h1.7V76.9z
		 M36.5,89.4h1.2v-3.6h-3.5v13l-1.5,1.2h-2.9v-2.4h1.4V71.2l1.5-1.2h9.6l1.5,1.2v6.4l-1.5,1.2h-8.1v4.5h3.5v-3.8h3v3.8h3.1v2.4h-3.1
		v3.6h1.3l1.5,1.2v8.2l-1.5,1.2h-5.6L35,98.8v-8.2L36.5,89.4z M34.2,72.4v4h6.6v-4H34.2z M40.5,91.8H38v5.8h2.5V91.8z"/>
	<path d="M59.7,69.9v1.9h8.2v2.4H48.5v-2.4h8.2v-1.9H59.7z M48.5,79.8h4.1v-4.6h3V81l-1.5,1.2h-5.6V79.8z M64.9,83.3v7.3l-0.5,0.4
		l-4,3.3l4,3.2h3.5v2.5h-4.8l-0.5-0.4L58.2,96l-4.4,3.6l-0.5,0.4h-4.8v-2.5H52l4-3.2l-4-3.3l-0.5-0.4v-7.3h3.2v6.3l3.5,2.9l3.5-2.9
		v-6.3H64.9z M67.9,82.3h-5.6L60.8,81v-5.8h3v4.6h4.1V82.3z"/>
	<path d="M79.7,88.9l-1.8,9.9l-1.5,1H73v-2.4h2l1.6-8.5H79.7z M76.3,83.5v1.9h13.9l1.5,1.2v12.1l-1.5,1.2h-4.1v-2.4h2.5v-9.6H74.7
		l-1.5-1.2v-3.1H76.3z M75,70h14.4l1.5,1.2v10.5l-1.5,1.2H75l-1.5-1.2V71.2L75,70z M87.9,72.4H76.5v2.8h11.4V72.4z M87.9,80.5v-2.8
		H76.5v2.8H87.9z M86.5,88.9l-2,9.9l-1.5,1h-3.2v-2.4h1.9l1.9-8.5H86.5z"/>
	<path d="M116.4,88.7h-8.2v11.2h-3V88.7h-8.2v-2.4h8.2V73h-7.6v-2.4h18.3V73h-7.6v13.3h8.2V88.7z M99.8,84.4l-1.7-9.5h3l1.7,9.5
		H99.8z M110.5,84.4l1.7-9.5h3l-1.7,9.5H110.5z"/>
	<path d="M127.3,70.5l-2.5,9.6H137v-6.8h3v8l-1.5,1.2h-15.5l-1.5-1.5l2.9-11.1L127.3,70.5z M123.6,84.5h14.7l1.5,1.2v13l-1.5,1.2
		h-14.7l-1.5-1.2v-13L123.6,84.5z M136.9,86.9h-11.7v10.6h11.7V86.9z"/>
</g>
</svg>
