<?xml version="1.0" encoding="utf-8"?>
<!-- Generator: Adobe Illustrator 19.0.0, SVG Export Plug-In . SVG Version: 6.00 Build 0)  -->
<svg version="1.1" id="图层_1" xmlns="http://www.w3.org/2000/svg" xmlns:xlink="http://www.w3.org/1999/xlink" x="0px" y="0px"
	 viewBox="0 0 375 180" style="enable-background:new 0 0 375 180;" xml:space="preserve">
<style type="text/css">
	.st0{clip-path:url(#SVGID_2_);}
	.st1{clip-path:url(#SVGID_4_);fill:url(#SVGID_5_);}
	.st2{filter:url(#Adobe_OpacityMaskFilter);}
	.st3{clip-path:url(#SVGID_7_);fill:url(#SVGID_9_);}
	.st4{clip-path:url(#SVGID_7_);mask:url(#SVGID_8_);fill:url(#SVGID_10_);}
	.st5{filter:url(#Adobe_OpacityMaskFilter_1_);}
	.st6{clip-path:url(#SVGID_12_);fill:url(#SVGID_14_);}
	.st7{clip-path:url(#SVGID_12_);mask:url(#SVGID_13_);fill:url(#SVGID_15_);}
</style>
<g>
	<defs>
		<rect id="SVGID_1_" width="375" height="180"/>
	</defs>
	<clipPath id="SVGID_2_">
		<use xlink:href="#SVGID_1_"  style="overflow:visible;"/>
	</clipPath>
	<g class="st0">
		<defs>
			<rect id="SVGID_3_" width="375" height="180"/>
		</defs>
		<clipPath id="SVGID_4_">
			<use xlink:href="#SVGID_3_"  style="overflow:visible;"/>
		</clipPath>
		
			<linearGradient id="SVGID_5_" gradientUnits="userSpaceOnUse" x1="3.745117e-008" y1="180" x2="1" y2="180" gradientTransform="matrix(-243.5737 -290.2798 -290.2798 243.5737 52559.6484 -43608.1211)">
			<stop  offset="0" style="stop-color:#1832AA"/>
			<stop  offset="1" style="stop-color:#0077ED"/>
		</linearGradient>
		<polygon class="st1" points="154.9,364.7 -88.6,74.4 220.1,-184.7 463.6,105.6 		"/>
	</g>
	<g class="st0">
		<defs>
			<path id="SVGID_6_" d="M180,122c0,23.4,10.7,44.2,27.5,58h95.1c16.8-13.8,27.5-34.6,27.5-58c0-41.4-33.6-75-75-75
				S180,80.6,180,122"/>
		</defs>
		<clipPath id="SVGID_7_">
			<use xlink:href="#SVGID_6_"  style="overflow:visible;"/>
		</clipPath>
		<defs>
			<filter id="Adobe_OpacityMaskFilter" filterUnits="userSpaceOnUse" x="114.5" y="-26.9" width="281" height="280.7">
				<feColorMatrix  type="matrix" values="1 0 0 0 0  0 1 0 0 0  0 0 1 0 0  0 0 0 1 0"/>
			</filter>
		</defs>
		<mask maskUnits="userSpaceOnUse" x="114.5" y="-26.9" width="281" height="280.7" id="SVGID_8_">
			<g class="st2">
				
					<linearGradient id="SVGID_9_" gradientUnits="userSpaceOnUse" x1="0" y1="179.9566" x2="1" y2="179.9566" gradientTransform="matrix(-114.9063 -96.4178 -96.4178 114.9063 17667.6621 -20512.9277)">
					<stop  offset="0" style="stop-color:#4D4D4D"/>
					<stop  offset="1" style="stop-color:#666666"/>
				</linearGradient>
				<polygon class="st3" points="268,253.9 114.5,125 242,-26.9 395.5,102 				"/>
			</g>
		</mask>
		
			<linearGradient id="SVGID_10_" gradientUnits="userSpaceOnUse" x1="0" y1="179.9566" x2="1" y2="179.9566" gradientTransform="matrix(-114.9063 -96.4178 -96.4178 114.9063 17667.6641 -20512.9297)">
			<stop  offset="0" style="stop-color:#1636AE"/>
			<stop  offset="1" style="stop-color:#52DDF2"/>
		</linearGradient>
		<polygon class="st4" points="268,253.9 114.5,125 242,-26.9 395.5,102 		"/>
	</g>
	<g class="st0">
		<defs>
			<path id="SVGID_11_" d="M60.4,0C47.6,15.5,40,35.4,40,57c0,49.7,40.3,90,90,90s90-40.3,90-90c0-21.6-7.6-41.5-20.4-57H60.4z"/>
		</defs>
		<clipPath id="SVGID_12_">
			<use xlink:href="#SVGID_11_"  style="overflow:visible;"/>
		</clipPath>
		<defs>
			<filter id="Adobe_OpacityMaskFilter_1_" filterUnits="userSpaceOnUse" x="-23.7" y="-77.9" width="307.3" height="302.9">
				<feColorMatrix  type="matrix" values="1 0 0 0 0  0 1 0 0 0  0 0 1 0 0  0 0 0 1 0"/>
			</filter>
		</defs>
		<mask maskUnits="userSpaceOnUse" x="-23.7" y="-77.9" width="307.3" height="302.9" id="SVGID_13_">
			<g class="st5">
				
					<linearGradient id="SVGID_14_" gradientUnits="userSpaceOnUse" x1="0" y1="179.9527" x2="1" y2="179.9527" gradientTransform="matrix(87.1013 -150.8639 -150.8639 -87.1013 27240.502 15813.1963)">
					<stop  offset="0" style="stop-color:#808080"/>
					<stop  offset="1" style="stop-color:#FFFFFF"/>
				</linearGradient>
				<polygon class="st6" points="-23.7,110.3 85,-77.9 283.7,36.8 175,224.9 				"/>
			</g>
		</mask>
		
			<linearGradient id="SVGID_15_" gradientUnits="userSpaceOnUse" x1="0" y1="179.9527" x2="1" y2="179.9527" gradientTransform="matrix(87.1013 -150.8639 -150.8639 -87.1013 27240.502 15813.1963)">
			<stop  offset="0" style="stop-color:#085ED5"/>
			<stop  offset="1" style="stop-color:#2EB2FD"/>
		</linearGradient>
		<polygon class="st7" points="-23.7,110.3 85,-77.9 283.7,36.8 175,224.9 		"/>
	</g>
</g>
</svg>
