<?xml version="1.0" encoding="utf-8"?>
<!-- Generator: Adobe Illustrator 19.0.0, SVG Export Plug-In . SVG Version: 6.00 Build 0)  -->
<svg version="1.1" xmlns="http://www.w3.org/2000/svg" xmlns:xlink="http://www.w3.org/1999/xlink" x="0px" y="0px"
	 viewBox="0 0 24 24" style="enable-background:new 0 0 24 24;" xml:space="preserve">
<style type="text/css">
	.st0{display:none;}
	.st1{fill-rule:evenodd;clip-rule:evenodd;fill:#F88D48;}
</style>
<g id="Line" class="st0">
</g>
<g id="icon">
	<g>
		<path class="st1" d="M20.2,16.4c-0.8-0.6-1.2-1.5-1.2-2.5V10c0-3.2-2.1-5.8-5-6.7l0-0.2c0-1-0.7-1.9-1.7-2.1C11.1,0.8,10,1.8,10,3
			v0.3C7.1,4.2,5,6.8,5,10v3.9c0,1-0.4,1.9-1.2,2.5c-0.6,0.4-0.9,1.2-0.8,2c0.2,1,1.1,1.7,2.1,1.7h13.8c1,0,1.9-0.7,2.1-1.7
			C21.1,17.5,20.8,16.8,20.2,16.4z"/>
		<path class="st1" d="M12,23c1.5,0,2.8-0.8,3.4-2H8.6C9.2,22.2,10.5,23,12,23z"/>
	</g>
</g>
</svg>
