<?xml version="1.0" encoding="utf-8"?>
<!-- Generator: Adobe Illustrator 19.0.0, SVG Export Plug-In . SVG Version: 6.00 Build 0)  -->
<svg version="1.1" xmlns="http://www.w3.org/2000/svg" xmlns:xlink="http://www.w3.org/1999/xlink" x="0px" y="0px"
	 viewBox="0 0 20 20" style="enable-background:new 0 0 20 20;" xml:space="preserve">
<style type="text/css">
	.st0{display:none;}
	.st1{fill-rule:evenodd;clip-rule:evenodd;fill:#B0B9C1;}
</style>
<g id="Line" class="st0">
</g>
<g id="icon">
	<path class="st1" d="M7,18L7,18c-0.6,0-1-0.4-1-1l0-9.5C6,6.7,5.3,6,4.5,6H3.1C2.8,6,2.6,5.5,2.9,5.3l3.6-3C7.1,1.7,8,2.2,8,2.9V17
		C8,17.6,7.6,18,7,18z"/>
	<path class="st1" d="M13,2L13,2c0.6,0,1,0.4,1,1l0,9.5c0,0.8,0.7,1.5,1.5,1.5h1.4c0.4,0,0.6,0.5,0.3,0.7l-3.6,3
		c-0.6,0.5-1.5,0.1-1.5-0.7V3C12,2.4,12.4,2,13,2z"/>
</g>
</svg>
