<?xml version="1.0" encoding="utf-8"?>
<!-- Generator: Adobe Illustrator 19.0.0, SVG Export Plug-In . SVG Version: 6.00 Build 0)  -->
<svg version="1.1" xmlns="http://www.w3.org/2000/svg" xmlns:xlink="http://www.w3.org/1999/xlink" x="0px" y="0px"
	 viewBox="0 0 24 24" style="enable-background:new 0 0 24 24;" xml:space="preserve">
<style type="text/css">
	.st0{display:none;}
	.st1{display:inline;}
	.st2{fill-rule:evenodd;clip-rule:evenodd;fill:none;stroke:#666666;stroke-width:0.5;stroke-miterlimit:10;}
	.st3{fill-rule:evenodd;clip-rule:evenodd;fill:#CCCCCC;}
</style>
<g id="BG" class="st0">
	<defs>
		<rect id="SVGID_1_" width="24" height="24"/>
	</defs>
	<use xlink:href="#SVGID_1_"  style="display:inline;overflow:visible;fill:#FFFFFF;"/>
	<clipPath id="SVGID_2_" class="st1">
		<use xlink:href="#SVGID_1_"  style="overflow:visible;"/>
	</clipPath>
</g>
<g id="Line" class="st0">
</g>
<g id="icon">
	<path class="st2" d="M12.2,14.5"/>
	<g>
		<g>
			<path class="st3" d="M17,2H7C5.9,2,5,2.9,5,4v16c0,1.1,0.9,2,2,2h10c1.1,0,2-0.9,2-2V4C19,2.9,18.1,2,17,2z M12,20
				c-1.1,0-2-0.9-2-2c0-1.1,0.9-2,2-2s2,0.9,2,2C14,19.1,13.1,20,12,20z M14,4h-4V3h4V4z"/>
		</g>
		<g>
			<circle class="st3" cx="12" cy="18" r="1.5"/>
		</g>
	</g>
</g>
</svg>
