<?xml version="1.0" encoding="utf-8"?>
<!-- Generator: Adobe Illustrator 21.0.0, SVG Export Plug-In . SVG Version: 6.00 Build 0)  -->
<svg version="1.1" id="图层_1" xmlns="http://www.w3.org/2000/svg" xmlns:xlink="http://www.w3.org/1999/xlink" x="0px" y="0px"
	 viewBox="0 0 24 24" style="enable-background:new 0 0 24 24;" xml:space="preserve">
<style type="text/css">
	.st0{fill:url(#SVGID_1_);}
	.st1{fill:url(#SVGID_2_);}
</style>
<radialGradient id="SVGID_1_" cx="8.2357" cy="5.5867" r="19.1042" gradientUnits="userSpaceOnUse">
	<stop  offset="0" style="stop-color:#FFFFFF"/>
	<stop  offset="3.399019e-02" style="stop-color:#FFFEF0"/>
	<stop  offset="9.905868e-02" style="stop-color:#FFFBCA"/>
	<stop  offset="0.1885" style="stop-color:#FFF68B"/>
	<stop  offset="0.2977" style="stop-color:#FFF036"/>
	<stop  offset="0.3634" style="stop-color:#FFEC00"/>
	<stop  offset="0.6345" style="stop-color:#FFCD00"/>
	<stop  offset="0.8493" style="stop-color:#EAAE07"/>
	<stop  offset="0.9839" style="stop-color:#FDD106"/>
	<stop  offset="1" style="stop-color:#FFD506"/>
</radialGradient>
<circle class="st0" cx="12" cy="12" r="12"/>
<radialGradient id="SVGID_2_" cx="7.6518" cy="4.7032" r="17.3058" gradientUnits="userSpaceOnUse">
	<stop  offset="0" style="stop-color:#000000;stop-opacity:0.4"/>
	<stop  offset="1" style="stop-color:#000000;stop-opacity:0.9"/>
</radialGradient>
<path class="st1" d="M5.8,6.7C6.6,6.5,7.3,5.2,7.3,4c0-1.1-0.5-1.7-1.3-1.5C5.3,2.7,4.6,3.7,4.5,4.8C4.4,6,5,6.9,5.8,6.7z M13.1,6.2
	C14.1,6.3,15,5.3,15.1,4c0.1-1.1-0.5-2.1-1.3-2.2c-0.8-0.1-1.7,0.7-1.9,1.8C11.6,4.9,12.2,6.1,13.1,6.2z M19.1,9.1
	c-0.4-0.1-0.7,0.1-0.7,0.5c-0.5,4.4-4.6,7.8-9.3,7.7C6.9,17.2,5,16.4,3.6,15c-1.2-1.3-2-3-2-4.8c0-0.3-0.2-0.5-0.5-0.4
	c-0.2,0.1-0.4,0.4-0.4,0.8c0,2.1,0.9,4.1,2.2,5.5c1.5,1.6,3.7,2.6,6.2,2.7c5.3,0.2,10-3.8,10.5-8.8C19.7,9.6,19.4,9.2,19.1,9.1z"/>
</svg>
