<?xml version="1.0" encoding="utf-8"?>
<!-- Generator: Adobe Illustrator 21.0.0, SVG Export Plug-In . SVG Version: 6.00 Build 0)  -->
<svg version="1.1" id="图层_1" xmlns="http://www.w3.org/2000/svg" xmlns:xlink="http://www.w3.org/1999/xlink" x="0px" y="0px"
	 viewBox="0 0 24 24" style="enable-background:new 0 0 24 24;" xml:space="preserve">
<style type="text/css">
	.st0{fill:url(#SVGID_1_);}
	.st1{fill:url(#SVGID_2_);}
</style>
<radialGradient id="SVGID_1_" cx="7.789" cy="6.1418" r="18.8772" gradientUnits="userSpaceOnUse">
	<stop  offset="0" style="stop-color:#FFFFFF"/>
	<stop  offset="3.399019e-02" style="stop-color:#FFFEF0"/>
	<stop  offset="9.905868e-02" style="stop-color:#FFFBCA"/>
	<stop  offset="0.1885" style="stop-color:#FFF68B"/>
	<stop  offset="0.2977" style="stop-color:#FFF036"/>
	<stop  offset="0.3634" style="stop-color:#FFEC00"/>
	<stop  offset="0.6345" style="stop-color:#FFCD00"/>
	<stop  offset="0.8493" style="stop-color:#EAAE07"/>
	<stop  offset="0.9839" style="stop-color:#FDD106"/>
	<stop  offset="1" style="stop-color:#FFD506"/>
</radialGradient>
<circle class="st0" cx="12" cy="12" r="12"/>
<radialGradient id="SVGID_2_" cx="8.392" cy="6.0635" r="18.9143" gradientUnits="userSpaceOnUse">
	<stop  offset="0" style="stop-color:#000000;stop-opacity:0.4"/>
	<stop  offset="1" style="stop-color:#000000;stop-opacity:0.9"/>
</radialGradient>
<path class="st1" d="M13.8,6c1,0.1,1.8-0.9,1.9-2.3c0.1-1.2-0.5-2.1-1.4-2.3c-0.8-0.1-1.7,0.7-1.9,1.8C12.3,4.6,12.9,5.9,13.8,6z
	 M6.3,6.3c0.8-0.2,1.5-1.5,1.5-2.8c0-1.1-0.6-1.8-1.4-1.6C5.7,2.2,5.1,3.2,5,4.3C4.9,5.6,5.5,6.5,6.3,6.3z M19.6,8.6
	c-0.3-0.3-0.7-0.3-0.9,0c-1.5,1.9-5,3.2-8.9,3.2c-1.9,0-3.6-0.3-4.9-0.8c-1.2-0.5-2.1-1.2-2.6-2c-0.1-0.2-0.4-0.2-0.7,0
	C1.4,9.3,1.3,9.7,1.5,10c0.5,0.9,1.3,1.6,2.4,2.2c1.2,0.6,2.7,1,4.4,1.2c-0.2,1.5-0.2,4.2,1.5,5.7c1.1,0.9,2.7,1.2,4.7,0.8
	c2.2-0.5,3.6-1.4,4-2.7c0.7-1.9-0.7-4.1-1.6-5.3c1.2-0.6,2.2-1.4,2.9-2.2C20,9.3,19.9,8.8,19.6,8.6z M17.8,16.1c0,0.2,0,0.5-0.1,0.7
	c-0.4,0.9-1.5,1.7-3.4,2.1c-1.8,0.4-3.1,0.2-3.9-0.6c-0.9-0.8-1.2-2.2-1.2-3.5c0-0.6,0-1.1,0.1-1.5c0.2,0,0.3,0,0.5,0
	c1,0,1.9-0.1,2.8-0.2c0.2,1,0.5,2,0.7,3c0,0.2,0.3,0.3,0.5,0.3c0.2,0,0.3-0.3,0.3-0.5c-0.2-1-0.4-2-0.7-3c0.9-0.2,1.8-0.5,2.6-0.8
	C16.6,13.1,17.8,14.7,17.8,16.1z"/>
</svg>
