<?xml version="1.0" encoding="utf-8"?>
<!-- Generator: Adobe Illustrator 21.0.0, SVG Export Plug-In . SVG Version: 6.00 Build 0)  -->
<svg version="1.1" id="图层_1" xmlns="http://www.w3.org/2000/svg" xmlns:xlink="http://www.w3.org/1999/xlink" x="0px" y="0px"
	 viewBox="0 0 24 24" style="enable-background:new 0 0 24 24;" xml:space="preserve">
<style type="text/css">
	.st0{fill-rule:evenodd;clip-rule:evenodd;fill:url(#SVGID_1_);}
</style>
<g>
	<radialGradient id="SVGID_1_" cx="12" cy="12" r="12" gradientUnits="userSpaceOnUse">
		<stop  offset="0" style="stop-color:#5599FF"/>
		<stop  offset="0.2347" style="stop-color:#4491FB;stop-opacity:0.9765"/>
		<stop  offset="1" style="stop-color:#1177EE;stop-opacity:0.9"/>
	</radialGradient>
	<path class="st0" d="M12,0C5.4,0,0,5.4,0,12c0,6.6,5.4,12,12,12s12-5.4,12-12C24,5.4,18.6,0,12,0L12,0z M9.7,17
		c-0.1,0.1-0.2,0.2-0.3,0.3c-0.1,0.1-0.3,0.2-0.4,0.2c-0.1,0.1-0.3,0.2-0.6,0.2c-0.3,0.1-0.5,0.2-0.8,0.3c-0.3,0.1-0.6,0.2-0.8,0.2
		c-0.3,0.1-0.5,0.1-0.6,0.1c-0.3,0-0.4,0-0.5-0.1c-0.1-0.1-0.1-0.3-0.1-0.5c0-0.1,0.1-0.3,0.1-0.6c0.1-0.3,0.2-0.5,0.2-0.8
		c0.1-0.3,0.2-0.5,0.2-0.8c0.1-0.2,0.1-0.4,0.2-0.5c0.1-0.1,0.1-0.3,0.2-0.4c0.1-0.1,0.2-0.2,0.3-0.4c0.1-0.1,6.6-6.7,6.6-6.7
		l2.7,2.8l-3.2,3.2C13.1,13.6,9.8,17,9.7,17z M18.4,8.2c0,0.1-0.1,0.2-0.2,0.4c-0.1,0.1-0.8,0.7-0.8,0.7l-2.7-2.7
		c0,0,0.7-0.7,0.8-0.7c0.1-0.1,0.3-0.2,0.4-0.2c0.1,0,0.3-0.1,0.4-0.1c0.1,0,0.3,0,0.4,0.1c0.1,0,0.2,0.1,0.3,0.1
		c0.2,0.1,0.4,0.3,0.7,0.6c0.2,0.3,0.4,0.6,0.6,0.8c0,0.1,0.1,0.2,0.1,0.3c0,0.1,0,0.2,0,0.4C18.5,8,18.4,8.1,18.4,8.2L18.4,8.2z"/>
</g>
</svg>
