<?xml version="1.0" encoding="utf-8"?>
<!-- Generator: Adobe Illustrator 21.0.0, SVG Export Plug-In . SVG Version: 6.00 Build 0)  -->
<svg version="1.1" id="图层_1" xmlns="http://www.w3.org/2000/svg" xmlns:xlink="http://www.w3.org/1999/xlink" x="0px" y="0px"
	 viewBox="0 0 16 16" style="enable-background:new 0 0 16 16;" xml:space="preserve">
<style type="text/css">
	.st0{fill:#CCCCCC;}
</style>
<g>
	<path class="st0" d="M8,0C3.6,0,0,3.6,0,8s3.6,8,8,8s8-3.6,8-8S12.4,0,8,0z M10.7,9.3c0.4,0.4,0.4,1,0,1.4C10.5,10.9,10.3,11,10,11
		s-0.5-0.1-0.7-0.3L8.4,9.8c-0.2-0.2-0.6-0.2-0.9,0l-0.9,0.9C6.5,10.9,6.3,11,6,11s-0.5-0.1-0.7-0.3c-0.4-0.4-0.4-1,0-1.4l0.9-0.9
		c0.2-0.2,0.2-0.6,0-0.9L5.3,6.7c-0.4-0.4-0.4-1,0-1.4s1-0.4,1.4,0l0.9,0.9c0.2,0.2,0.6,0.2,0.9,0l0.9-0.9c0.4-0.4,1-0.4,1.4,0
		s0.4,1,0,1.4L9.8,7.6c-0.2,0.2-0.2,0.6,0,0.9L10.7,9.3z"/>
</g>
</svg>
