<?xml version="1.0" encoding="utf-8"?>
<!-- Generator: Adobe Illustrator 21.0.0, SVG Export Plug-In . SVG Version: 6.00 Build 0)  -->
<svg version="1.1" id="图层_1" xmlns="http://www.w3.org/2000/svg" xmlns:xlink="http://www.w3.org/1999/xlink" x="0px" y="0px"
	 viewBox="0 0 24 24" style="enable-background:new 0 0 24 24;" xml:space="preserve">
<style type="text/css">
	.st0{fill:url(#SVGID_1_);}
	.st1{fill:url(#SVGID_2_);}
</style>
<radialGradient id="SVGID_1_" cx="7.789" cy="6.1418" r="18.8772" gradientUnits="userSpaceOnUse">
	<stop  offset="0" style="stop-color:#FFFFFF"/>
	<stop  offset="3.399019e-02" style="stop-color:#FFFEF0"/>
	<stop  offset="9.905868e-02" style="stop-color:#FFFBCA"/>
	<stop  offset="0.1885" style="stop-color:#FFF68B"/>
	<stop  offset="0.2977" style="stop-color:#FFF036"/>
	<stop  offset="0.3634" style="stop-color:#FFEC00"/>
	<stop  offset="0.6345" style="stop-color:#FFCD00"/>
	<stop  offset="0.8493" style="stop-color:#EAAE07"/>
	<stop  offset="0.9839" style="stop-color:#FDD106"/>
	<stop  offset="1" style="stop-color:#FFD506"/>
</radialGradient>
<circle class="st0" cx="12" cy="12" r="12"/>
<radialGradient id="SVGID_2_" cx="7.9733" cy="5.9937" r="19.0682" gradientUnits="userSpaceOnUse">
	<stop  offset="0" style="stop-color:#000000;stop-opacity:0.4"/>
	<stop  offset="1" style="stop-color:#000000;stop-opacity:0.9"/>
</radialGradient>
<path class="st1" d="M14.1,5.2c0.9,0,1.7-0.9,1.6-1.9c-0.1-1-0.8-1.7-1.7-1.7c-0.8,0-1.6,0.7-1.6,1.7C12.4,4.2,13.2,5.2,14.1,5.2z
	 M5.8,5.8c0.8-0.1,1.5-1.1,1.7-2.2c0.2-1-0.3-1.6-1-1.4c-0.7,0.1-1.4,1-1.7,1.9C4.6,5.1,5.1,5.9,5.8,5.8z M19.7,13.6
	c-1.9-2.5-6-4.2-10.2-4c-2,0.1-3.8,0.5-5.2,1.3C3,11.5,2,12.4,1.5,13.5c-0.1,0.3-0.1,0.7,0.1,0.9c0.2,0.2,0.5,0.2,0.6,0
	c0.5-0.9,1.4-1.7,2.6-2.3c1.3-0.6,2.9-1,4.7-1c3.9-0.1,7.5,1.3,9.2,3.5c0.3,0.3,0.7,0.3,1,0.1C19.9,14.4,19.9,13.9,19.7,13.6z"/>
</svg>
