<?xml version="1.0" encoding="utf-8"?>
<!-- Generator: Adobe Illustrator 21.0.0, SVG Export Plug-In . SVG Version: 6.00 Build 0)  -->
<svg version="1.1" xmlns="http://www.w3.org/2000/svg" xmlns:xlink="http://www.w3.org/1999/xlink" x="0px" y="0px"
	 viewBox="0 0 22 22" style="enable-background:new 0 0 22 22;" xml:space="preserve">
<style type="text/css">
	.st0{display:none;}
	.st1{display:inline;}
	.st2{fill-rule:evenodd;clip-rule:evenodd;fill:#1177EE;}
</style>
<g id="BG" class="st0">
	<defs>
		<rect id="SVGID_1_" width="22" height="22"/>
	</defs>
	<use xlink:href="#SVGID_1_"  style="display:inline;overflow:visible;fill:#FFFFFF;"/>
	<clipPath id="SVGID_2_" class="st1">
		<use xlink:href="#SVGID_1_"  style="overflow:visible;"/>
	</clipPath>
</g>
<g id="Line" class="st0">
</g>
<g id="icon">
	<g>
		<path class="st2" d="M21.3,15.2l-4.1-1.8c-0.4-0.2-1-0.1-1.3,0.2l-1.8,1.6c-0.4,0.4-1,0.4-1.4,0.2c-2.5-1.4-4.6-3.5-6.1-6
			c-0.3-0.5-0.2-1,0.2-1.4L8.6,6C8.9,5.7,9,5.3,8.9,4.9l-1-4C7.8,0.4,7.3,0,6.7,0H1.8C0.8,0,0,0.8,0,1.9C0.5,11.7,10.4,21.6,20.3,22
			c0.5,0,0.9-0.2,1.2-0.5c0.3-0.3,0.5-0.7,0.5-1.2v-4C22,15.8,21.7,15.4,21.3,15.2L21.3,15.2L21.3,15.2z"/>
	</g>
</g>
</svg>
