<?xml version="1.0" encoding="utf-8"?>
<!-- Generator: Adobe Illustrator 21.0.0, SVG Export Plug-In . SVG Version: 6.00 Build 0)  -->
<svg version="1.1" xmlns="http://www.w3.org/2000/svg" xmlns:xlink="http://www.w3.org/1999/xlink" x="0px" y="0px"
	 viewBox="0 0 22 22" style="enable-background:new 0 0 22 22;" xml:space="preserve">
<style type="text/css">
	.st0{display:none;}
	.st1{display:inline;}
	.st2{fill-rule:evenodd;clip-rule:evenodd;fill:#86909B;}
</style>
<g id="BG" class="st0">
	<defs>
		<rect id="SVGID_1_" width="22" height="22"/>
	</defs>
	<use xlink:href="#SVGID_1_"  style="display:inline;overflow:visible;fill:#FFFFFF;"/>
	<clipPath id="SVGID_2_" class="st1">
		<use xlink:href="#SVGID_1_"  style="overflow:visible;"/>
	</clipPath>
</g>
<g id="Line" class="st0">
</g>
<g id="icon">
	<g>
		<path class="st2" d="M11,0c2.8,0,5.7,2,5.7,5v3c0,1.6-0.8,4.5-2.5,5.8c-0.3,0.2-0.4,0.6-0.4,1c0,0.4,0.3,0.7,0.6,0.9l6.7,3.1
			c0.3,0.1,0.7,0.4,0.9,0.6V21c0,0.5-0.4,1-1,1H1c-0.5,0-1-0.4-1-1v-1.6c0.1-0.2,0.5-0.4,0.9-0.6l6.6-3.1c0.3-0.2,0.6-0.5,0.6-0.9
			c0-0.4-0.1-0.7-0.4-1C6,12.4,5.3,9.6,5.3,8V5C5.3,2,8.2,0,11,0L11,0L11,0z"/>
	</g>
</g>
</svg>
