<?xml version="1.0" encoding="utf-8"?>
<!-- Generator: Adobe Illustrator 21.0.0, SVG Export Plug-In . SVG Version: 6.00 Build 0)  -->
<svg version="1.1" id="图层_1" xmlns="http://www.w3.org/2000/svg" xmlns:xlink="http://www.w3.org/1999/xlink" x="0px" y="0px"
	 viewBox="0 0 375 180" style="enable-background:new 0 0 375 180;" xml:space="preserve">
<style type="text/css">
	.st0{fill:url(#SVGID_1_);}
	.st1{fill:url(#SVGID_2_);}
	.st2{fill:url(#SVGID_3_);}
</style>
<g>
	<linearGradient id="SVGID_1_" gradientUnits="userSpaceOnUse" x1="309.2868" y1="235.1399" x2="65.7132" y2="-55.1399">
		<stop  offset="0" style="stop-color:#1832AA"/>
		<stop  offset="1" style="stop-color:#0077ED"/>
	</linearGradient>
	<rect class="st0" width="375" height="180"/>
</g>
<linearGradient id="SVGID_2_" gradientUnits="userSpaceOnUse" x1="312.4531" y1="170.2059" x2="197.5468" y2="73.788">
	<stop  offset="0" style="stop-color:#1636AE;stop-opacity:0.3"/>
	<stop  offset="1" style="stop-color:#52DDF2;stop-opacity:0.4"/>
</linearGradient>
<path class="st1" d="M207.5,180h95.1c16.8-13.8,27.5-34.6,27.5-58c0-41.4-33.6-75-75-75s-75,33.6-75,75
	C180,145.4,190.7,166.2,207.5,180z"/>
<linearGradient id="SVGID_3_" gradientUnits="userSpaceOnUse" x1="84.9937" y1="134.956" x2="172.095" y2="-15.9079">
	<stop  offset="0" style="stop-color:#085ED5;stop-opacity:0.5"/>
	<stop  offset="1" style="stop-color:#2EB2FD"/>
</linearGradient>
<path class="st2" d="M60.4,0C47.6,15.5,40,35.4,40,57c0,49.7,40.3,90,90,90s90-40.3,90-90c0-21.6-7.6-41.5-20.4-57H60.4z"/>
</svg>
