<?xml version="1.0" encoding="utf-8"?>
<!-- Generator: Adobe Illustrator 21.0.0, SVG Export Plug-In . SVG Version: 6.00 Build 0)  -->
<svg version="1.1" id="图层_1" xmlns="http://www.w3.org/2000/svg" xmlns:xlink="http://www.w3.org/1999/xlink" x="0px" y="0px"
	 viewBox="0 0 180 96" style="enable-background:new 0 0 180 96;" xml:space="preserve">
<style type="text/css">
	.st0{fill:#FFFFFF;stroke:#AFB7BC;stroke-width:0.5;stroke-linejoin:round;stroke-miterlimit:10;}
	.st1{fill:none;stroke:#AFB7BC;stroke-width:0.5;stroke-linejoin:round;stroke-miterlimit:10;}
	.st2{fill:none;stroke:#AFB7BC;stroke-linecap:round;stroke-linejoin:round;stroke-miterlimit:10;}
	.st3{opacity:0.6;fill:#AFB7BC;}
	.st4{fill:#FFFFFF;}
	.st5{fill:none;stroke:#AFB7BC;stroke-width:0.5;stroke-linecap:round;stroke-linejoin:round;stroke-miterlimit:10;}
</style>
<g>
	<path class="st0" d="M144.6,79.9H49.1c-1.5,0-2.8-1.3-2.8-2.8V13c0-1.5,1.3-2.8,2.8-2.8h95.6c1.5,0,2.8,1.3,2.8,2.8v64.1
		C147.4,78.7,146.1,79.9,144.6,79.9z"/>
	<line class="st1" x1="147.5" y1="70.8" x2="46.2" y2="70.8"/>
	<circle class="st1" cx="96.9" cy="12" r="0.5"/>
	<path class="st1" d="M107.5,79.9c0,0,0,6.1,1,8.1c0.5,1,3.6,2.4,3.6,2.6c0,0.4-2.9,0.4-4.3,0.4H85.8c-1.4,0-4.3-0.1-4.3-0.4
		c0-0.2,3.2-1.7,3.6-2.6c1-2,1-8.1,1-8.1"/>
	<path class="st1" d="M112.2,90.6c0,0,0,0.3,0,0.5c0,0.4-2.9,0.4-4.3,0.4H85.8c-1.4,0-4.3-0.1-4.3-0.4c0-0.2,0-0.5,0-0.5"/>
	<rect x="50.5" y="14.6" class="st1" width="92.8" height="52.3"/>
	<line class="st2" x1="73" y1="23.6" x2="97" y2="23.6"/>
	<line class="st2" x1="61" y1="23.6" x2="68" y2="23.6"/>
	<line class="st2" x1="61" y1="30.6" x2="97" y2="30.6"/>
	<line class="st2" x1="69" y1="37.6" x2="97" y2="37.6"/>
	<line class="st2" x1="83" y1="44.6" x2="97" y2="44.6"/>
	<line class="st2" x1="69" y1="44.6" x2="79" y2="44.6"/>
	<line class="st2" x1="69" y1="51.6" x2="97" y2="51.6"/>
	<line class="st2" x1="89" y1="58.6" x2="97" y2="58.6"/>
	<line class="st2" x1="69" y1="58.6" x2="84" y2="58.6"/>
	<path class="st3" d="M122,22.6c-6.6,0-12,5.4-12,12c0,6.6,5.4,12,12,12s12-5.4,12-12C134,27.9,128.6,22.6,122,22.6z M124.1,35.3
		l1.6,1.6c0.4,0.4,0.4,1,0,1.4c-0.2,0.2-0.5,0.3-0.7,0.3s-0.5-0.1-0.7-0.3l-1.6-1.6c-0.4-0.4-1-0.4-1.4,0l-1.6,1.6
		c-0.2,0.2-0.5,0.3-0.7,0.3s-0.5-0.1-0.7-0.3c-0.4-0.4-0.4-1,0-1.4l1.6-1.6c0.4-0.4,0.4-1,0-1.4l-1.6-1.6c-0.4-0.4-0.4-1,0-1.4
		s1-0.4,1.4,0l1.6,1.6c0.4,0.4,1,0.4,1.4,0l1.6-1.6c0.4-0.4,1-0.4,1.4,0s0.4,1,0,1.4l-1.6,1.6C123.7,34.2,123.7,34.9,124.1,35.3z"/>
</g>
<g>
	<path class="st0" d="M60.2,91.6H26.3c-1.4,0-2.3-0.9-2.3-2.3V38.6c0-1.4,0.9-2.4,2.3-2.4h33.9c1.4,0,2.3,0.9,2.3,2.3v50.7
		C62.4,90.7,61.6,91.6,60.2,91.6z"/>
	<circle class="st1" cx="43.2" cy="38.3" r="0.3"/>
	<circle class="st1" cx="43.2" cy="89.6" r="1.2"/>
	<circle class="st1" cx="43.2" cy="89.6" r="1"/>
	<path class="st1" d="M60.9,87.6H25.5c0,0-0.1,0-0.1-0.1V40.3c0,0,0-0.1,0.1-0.1h35.4c0,0,0.1,0,0.1,0.1L60.9,87.6
		C61,87.5,61,87.6,60.9,87.6z"/>
	<path class="st3" d="M61,69.6H25.5c0,0-0.1,0-0.1-0.1V40.3c0,0,0-0.1,0.1-0.1H61c0,0,0.1,0,0.1,0.1L61,69.6
		C61,69.5,61,69.6,61,69.6z"/>
	<path class="st4" d="M43.2,45.9c-5,0-9,4-9,9c0,5,4,9,9,9s9-4,9-9C52.2,49.9,48.2,45.9,43.2,45.9z M44.8,55.4l1.2,1.2
		c0.3,0.3,0.3,0.8,0,1.1c-0.1,0.1-0.3,0.2-0.5,0.2s-0.4-0.1-0.5-0.2l-1.2-1.2c-0.3-0.3-0.8-0.3-1.1,0l-1.2,1.2
		c-0.1,0.1-0.3,0.2-0.5,0.2s-0.4-0.1-0.5-0.2c-0.3-0.3-0.3-0.8,0-1.1l1.2-1.2c0.3-0.3,0.3-0.8,0-1.1l-1.2-1.2
		c-0.3-0.3-0.3-0.8,0-1.1s0.8-0.3,1.1,0l1.2,1.2c0.3,0.3,0.8,0.3,1.1,0l1.2-1.2c0.3-0.3,0.8-0.3,1.1,0s0.3,0.8,0,1.1l-1.2,1.2
		C44.5,54.6,44.5,55.1,44.8,55.4z"/>
	<line class="st2" x1="31" y1="74.6" x2="41" y2="74.6"/>
	<line class="st2" x1="31" y1="78.6" x2="49" y2="78.6"/>
	<line class="st2" x1="41" y1="82.6" x2="48" y2="82.6"/>
	<line class="st2" x1="31" y1="82.6" x2="38" y2="82.6"/>
</g>
<g>
	<path class="st0" d="M153.2,91.6h-14c-1.5,0-2.8-1.2-2.8-2.8V53.3c0-1.5,1.2-2.8,2.8-2.8h14c1.5,0,2.8,1.2,2.8,2.8v35.5
		C156,90.3,154.8,91.6,153.2,91.6z"/>
	<circle class="st1" cx="146.2" cy="51.6" r="0.2"/>
	<circle class="st1" cx="143" cy="52.9" r="0.4"/>
	<path class="st1" d="M147.9,53.1h-3.3c-0.1,0-0.2-0.1-0.2-0.2l0,0c0-0.1,0.1-0.2,0.2-0.2h3.3c0.1,0,0.2,0.1,0.2,0.2l0,0
		C148,53,148,53.1,147.9,53.1z"/>
	<circle class="st1" cx="146.2" cy="89.1" r="1.6"/>
	<path class="st1" d="M154.4,86.9h-16.3c-0.1,0-0.1-0.1-0.1-0.1V55.3c0-0.1,0.1-0.1,0.1-0.1h16.3c0.1,0,0.1,0.1,0.1,0.1v31.5
		C154.5,86.9,154.4,86.9,154.4,86.9z"/>
	<path class="st3" d="M154.4,86.9h-16.3c0,0-0.1,0-0.1-0.1V67.6c0,0,0-0.1,0.1-0.1h16.3c0,0,0.1,0,0.1,0.1L154.4,86.9
		C154.5,86.9,154.5,86.9,154.4,86.9z"/>
	<path class="st4" d="M146.2,71.5c-3.2,0-5.8,2.6-5.8,5.8c0,3.2,2.6,5.8,5.8,5.8s5.8-2.6,5.8-5.8C152,74,149.4,71.5,146.2,71.5z
		 M147.3,77.6l0.8,0.8c0.2,0.2,0.2,0.5,0,0.7c-0.1,0.1-0.2,0.1-0.3,0.1s-0.2,0-0.3-0.1l-0.8-0.8c-0.2-0.2-0.5-0.2-0.7,0l-0.8,0.8
		c-0.1,0.1-0.2,0.1-0.3,0.1s-0.2,0-0.3-0.1c-0.2-0.2-0.2-0.5,0-0.7l0.8-0.8c0.2-0.2,0.2-0.5,0-0.7l-0.8-0.8c-0.2-0.2-0.2-0.5,0-0.7
		c0.2-0.2,0.5-0.2,0.7,0l0.8,0.8c0.2,0.2,0.5,0.2,0.7,0l0.8-0.8c0.2-0.2,0.5-0.2,0.7,0c0.2,0.2,0.2,0.5,0,0.7l-0.8,0.8
		C147.1,77.1,147.1,77.4,147.3,77.6z"/>
	<line class="st2" x1="143.5" y1="58.1" x2="151.5" y2="58.1"/>
	<line class="st2" x1="140.5" y1="61.1" x2="151.5" y2="61.1"/>
	<line class="st2" x1="148.5" y1="64.1" x2="151.5" y2="64.1"/>
	<line class="st2" x1="143.5" y1="64.1" x2="146.5" y2="64.1"/>
</g>
<line class="st2" x1="0.5" y1="93.5" x2="179.5" y2="93.5"/>
<line class="st5" x1="151.5" y1="12.1" x2="156.5" y2="12.1"/>
<line class="st5" x1="149.4" y1="8.2" x2="153.6" y2="3.9"/>
<line class="st5" x1="145.5" y1="6.1" x2="145.5" y2="1.1"/>
</svg>
